%TF.GenerationSoftware,KiCad,Pcbnew,9.0.4-9.0.4-0~ubuntu24.04.1*%
%TF.CreationDate,2026-01-22T00:02:32-05:00*%
%TF.ProjectId,Mergung 1.18 TRACES,4d657267-756e-4672-9031-2e3138205452,rev?*%
%TF.SameCoordinates,Original*%
%TF.FileFunction,Copper,L4,Bot*%
%TF.FilePolarity,Positive*%
%FSLAX46Y46*%
G04 Gerber Fmt 4.6, Leading zero omitted, Abs format (unit mm)*
G04 Created by KiCad (PCBNEW 9.0.4-9.0.4-0~ubuntu24.04.1) date 2026-01-22 00:02:32*
%MOMM*%
%LPD*%
G01*
G04 APERTURE LIST*
%TA.AperFunction,ComponentPad*%
%ADD10C,2.500000*%
%TD*%
%TA.AperFunction,ViaPad*%
%ADD11C,0.600000*%
%TD*%
%TA.AperFunction,Conductor*%
%ADD12C,0.500000*%
%TD*%
%TA.AperFunction,Conductor*%
%ADD13C,1.000000*%
%TD*%
%TA.AperFunction,Conductor*%
%ADD14C,0.200000*%
%TD*%
%TA.AperFunction,Conductor*%
%ADD15C,2.000000*%
%TD*%
G04 APERTURE END LIST*
D10*
%TO.P,Con2,1,Pin_1*%
%TO.N,Net-(Con2-Pin_1)*%
X103000000Y-34250000D03*
%TO.P,Con2,2,Pin_2*%
%TO.N,GNDPWR*%
X103000000Y-39750000D03*
%TD*%
%TO.P,Con1,1,Pin_1*%
%TO.N,VCC*%
X47000000Y-42000000D03*
%TO.P,Con1,2,Pin_2*%
%TO.N,GNDPWR*%
X47000000Y-47500000D03*
%TO.P,Con1,3,Pin_3*%
%TO.N,GNDREF*%
X47000000Y-53000000D03*
%TD*%
%TO.P,Con3,1,Pin_1*%
%TO.N,Net-(Con3-Pin_1)*%
X103000000Y-48000000D03*
%TO.P,Con3,2,Pin_2*%
%TO.N,GNDPWR*%
X103000000Y-53500000D03*
%TD*%
D11*
%TO.N,Net-(M4-D)*%
X75571700Y-60500000D03*
X74259500Y-70200000D03*
%TO.N,GNDREF*%
X64123300Y-27779300D03*
X70653300Y-36795000D03*
X74585100Y-58504100D03*
X56000000Y-48500000D03*
X62835300Y-27902100D03*
X62334300Y-30500000D03*
X61500000Y-32153500D03*
X40943300Y-22840000D03*
X57206500Y-57035300D03*
X70201800Y-54537200D03*
%TO.N,GNDPWR*%
X67500000Y-59000000D03*
X67403900Y-46333000D03*
X91397700Y-55182600D03*
X65500000Y-50500000D03*
X90137500Y-56612500D03*
X52762600Y-55786200D03*
%TO.N,VCC*%
X68815350Y-61315350D03*
X58747300Y-64050000D03*
X54202500Y-43500000D03*
X70000000Y-36000000D03*
X78500000Y-32000000D03*
X73000000Y-57000000D03*
%TO.N,Net-(Con2-Pin_1)*%
X77208100Y-27839500D03*
%TO.N,Net-(Con3-Pin_1)*%
X75811300Y-50275000D03*
X102997400Y-51730000D03*
%TO.N,Net-(U2-VCC)*%
X52685400Y-61684300D03*
X66500000Y-58328700D03*
X67676800Y-49480000D03*
%TO.N,Net-(U1-PFM{slash}SYNC)*%
X67881800Y-32942400D03*
X76500000Y-33000000D03*
%TO.N,Net-(U2-PFM{slash}SYNC)*%
X74000000Y-57500000D03*
X67000000Y-57500000D03*
%TO.N,Net-(U1-ISNS+)*%
X74000000Y-43500000D03*
X76500000Y-31000000D03*
%TO.N,Net-(U2-ISNS+)*%
X78746800Y-64280000D03*
X78746800Y-53595600D03*
%TO.N,Net-(M1-G)*%
X72500000Y-36500000D03*
X77735300Y-30500000D03*
%TO.N,Net-(M4-G)*%
X69500000Y-64000000D03*
X66794800Y-60103200D03*
%TO.N,Net-(U2-FB)*%
X68000000Y-50500000D03*
X67592400Y-57000000D03*
%TO.N,Net-(U1-PG{slash}SYNCOUT)*%
X61500000Y-44500000D03*
X75000000Y-33000000D03*
%TO.N,Net-(U2-PG{slash}SYNCOUT)*%
X74900000Y-57851100D03*
X74593900Y-52774200D03*
%TO.N,Net-(U2-RT)*%
X67000000Y-55500000D03*
X68505000Y-48655900D03*
%TD*%
D12*
%TO.N,GNDREF*%
X64123300Y-27779300D02*
X63417900Y-28484700D01*
X62334300Y-29568300D02*
X62334300Y-30500000D01*
X63417900Y-28484700D02*
X62835300Y-27902100D01*
X63417900Y-28484700D02*
X62334300Y-29568300D01*
D13*
%TO.N,VCC*%
X54202500Y-42000000D02*
X61202500Y-35000000D01*
D14*
X70000000Y-35500000D02*
X69500000Y-35000000D01*
D13*
X78500000Y-32500000D02*
X78500000Y-32000000D01*
X61202500Y-35000000D02*
X69500000Y-35000000D01*
D14*
X70000000Y-36000000D02*
X70000000Y-35500000D01*
D13*
X76000000Y-35000000D02*
X78500000Y-32500000D01*
D15*
X54202500Y-59505200D02*
X58747300Y-64050000D01*
X54202500Y-43500000D02*
X54202500Y-59505200D01*
D13*
X54202500Y-43500000D02*
X54202500Y-42000000D01*
X69500000Y-35000000D02*
X76000000Y-35000000D01*
D12*
%TO.N,Net-(Con3-Pin_1)*%
X103000000Y-48000000D02*
X103000000Y-51727400D01*
X103000000Y-51727400D02*
X102997400Y-51730000D01*
D14*
%TO.N,Net-(U2-VCC)*%
X66500000Y-57837600D02*
X66000000Y-57337600D01*
X66000000Y-51156800D02*
X67676800Y-49480000D01*
X66000000Y-57337600D02*
X66000000Y-51156800D01*
X66500000Y-58328700D02*
X66500000Y-57837600D01*
%TD*%
M02*
