%TF.GenerationSoftware,KiCad,Pcbnew,9.0.4-9.0.4-0~ubuntu24.04.1*%
%TF.CreationDate,2026-01-22T00:02:32-05:00*%
%TF.ProjectId,Mergung 1.18 TRACES,4d657267-756e-4672-9031-2e3138205452,rev?*%
%TF.SameCoordinates,Original*%
%TF.FileFunction,Paste,Top*%
%TF.FilePolarity,Positive*%
%FSLAX46Y46*%
G04 Gerber Fmt 4.6, Leading zero omitted, Abs format (unit mm)*
G04 Created by KiCad (PCBNEW 9.0.4-9.0.4-0~ubuntu24.04.1) date 2026-01-22 00:02:32*
%MOMM*%
%LPD*%
G01*
G04 APERTURE LIST*
G04 Aperture macros list*
%AMRoundRect*
0 Rectangle with rounded corners*
0 $1 Rounding radius*
0 $2 $3 $4 $5 $6 $7 $8 $9 X,Y pos of 4 corners*
0 Add a 4 corners polygon primitive as box body*
4,1,4,$2,$3,$4,$5,$6,$7,$8,$9,$2,$3,0*
0 Add four circle primitives for the rounded corners*
1,1,$1+$1,$2,$3*
1,1,$1+$1,$4,$5*
1,1,$1+$1,$6,$7*
1,1,$1+$1,$8,$9*
0 Add four rect primitives between the rounded corners*
20,1,$1+$1,$2,$3,$4,$5,0*
20,1,$1+$1,$4,$5,$6,$7,0*
20,1,$1+$1,$6,$7,$8,$9,0*
20,1,$1+$1,$8,$9,$2,$3,0*%
G04 Aperture macros list end*
%ADD10C,0.000000*%
%ADD11RoundRect,0.135000X0.135000X0.185000X-0.135000X0.185000X-0.135000X-0.185000X0.135000X-0.185000X0*%
%ADD12RoundRect,0.200000X-0.200000X-0.275000X0.200000X-0.275000X0.200000X0.275000X-0.200000X0.275000X0*%
%ADD13RoundRect,0.140000X-0.170000X0.140000X-0.170000X-0.140000X0.170000X-0.140000X0.170000X0.140000X0*%
%ADD14RoundRect,0.250000X0.475000X-0.250000X0.475000X0.250000X-0.475000X0.250000X-0.475000X-0.250000X0*%
%ADD15RoundRect,0.250000X0.325000X1.100000X-0.325000X1.100000X-0.325000X-1.100000X0.325000X-1.100000X0*%
%ADD16RoundRect,0.200000X-0.275000X0.200000X-0.275000X-0.200000X0.275000X-0.200000X0.275000X0.200000X0*%
%ADD17RoundRect,0.250000X1.275000X1.125000X-1.275000X1.125000X-1.275000X-1.125000X1.275000X-1.125000X0*%
%ADD18RoundRect,0.250000X0.850000X0.350000X-0.850000X0.350000X-0.850000X-0.350000X0.850000X-0.350000X0*%
%ADD19RoundRect,0.250000X-0.650000X0.325000X-0.650000X-0.325000X0.650000X-0.325000X0.650000X0.325000X0*%
%ADD20RoundRect,0.375000X0.375000X0.375000X-0.375000X0.375000X-0.375000X-0.375000X0.375000X-0.375000X0*%
%ADD21RoundRect,0.125000X0.250000X0.125000X-0.250000X0.125000X-0.250000X-0.125000X0.250000X-0.125000X0*%
%ADD22RoundRect,0.100000X0.275000X0.100000X-0.275000X0.100000X-0.275000X-0.100000X0.275000X-0.100000X0*%
%ADD23RoundRect,0.250000X0.625000X-0.312500X0.625000X0.312500X-0.625000X0.312500X-0.625000X-0.312500X0*%
%ADD24RoundRect,0.249999X2.500001X-1.250001X2.500001X1.250001X-2.500001X1.250001X-2.500001X-1.250001X0*%
%ADD25RoundRect,0.250000X-0.250000X-0.475000X0.250000X-0.475000X0.250000X0.475000X-0.250000X0.475000X0*%
%ADD26RoundRect,0.250000X-0.325000X-1.100000X0.325000X-1.100000X0.325000X1.100000X-0.325000X1.100000X0*%
%ADD27RoundRect,0.250000X-0.475000X0.250000X-0.475000X-0.250000X0.475000X-0.250000X0.475000X0.250000X0*%
%ADD28RoundRect,0.135000X-0.185000X0.135000X-0.185000X-0.135000X0.185000X-0.135000X0.185000X0.135000X0*%
%ADD29R,3.100000X5.000000*%
%ADD30RoundRect,0.135000X-0.135000X-0.185000X0.135000X-0.185000X0.135000X0.185000X-0.135000X0.185000X0*%
%ADD31R,0.254000X0.812800*%
%ADD32R,0.812800X0.254000*%
%ADD33R,2.209800X4.191000*%
%ADD34RoundRect,0.375000X-0.375000X-0.375000X0.375000X-0.375000X0.375000X0.375000X-0.375000X0.375000X0*%
%ADD35RoundRect,0.125000X-0.250000X-0.125000X0.250000X-0.125000X0.250000X0.125000X-0.250000X0.125000X0*%
%ADD36RoundRect,0.100000X-0.275000X-0.100000X0.275000X-0.100000X0.275000X0.100000X-0.275000X0.100000X0*%
%ADD37RoundRect,0.250000X0.312500X0.625000X-0.312500X0.625000X-0.312500X-0.625000X0.312500X-0.625000X0*%
%ADD38RoundRect,0.225000X0.250000X-0.225000X0.250000X0.225000X-0.250000X0.225000X-0.250000X-0.225000X0*%
%ADD39RoundRect,0.140000X0.170000X-0.140000X0.170000X0.140000X-0.170000X0.140000X-0.170000X-0.140000X0*%
%ADD40RoundRect,0.250000X1.100000X-0.325000X1.100000X0.325000X-1.100000X0.325000X-1.100000X-0.325000X0*%
%ADD41RoundRect,0.375000X0.375000X-0.375000X0.375000X0.375000X-0.375000X0.375000X-0.375000X-0.375000X0*%
%ADD42RoundRect,0.125000X0.125000X-0.250000X0.125000X0.250000X-0.125000X0.250000X-0.125000X-0.250000X0*%
%ADD43RoundRect,0.100000X0.100000X-0.275000X0.100000X0.275000X-0.100000X0.275000X-0.100000X-0.275000X0*%
G04 APERTURE END LIST*
D10*
%TO.C,U1*%
G36*
X72754900Y-31393900D02*
G01*
X70745100Y-31393900D01*
X70745100Y-30196900D01*
X72754900Y-30196900D01*
X72754900Y-31393900D01*
G37*
G36*
X72754900Y-32790900D02*
G01*
X70745100Y-32790900D01*
X70745100Y-31593900D01*
X72754900Y-31593900D01*
X72754900Y-32790900D01*
G37*
G36*
X72754900Y-34187900D02*
G01*
X70745100Y-34187900D01*
X70745100Y-32990900D01*
X72754900Y-32990900D01*
X72754900Y-34187900D01*
G37*
%TO.C,U2*%
G36*
X71206700Y-56451500D02*
G01*
X69196900Y-56451500D01*
X69196900Y-55254500D01*
X71206700Y-55254500D01*
X71206700Y-56451500D01*
G37*
G36*
X71206700Y-57848500D02*
G01*
X69196900Y-57848500D01*
X69196900Y-56651500D01*
X71206700Y-56651500D01*
X71206700Y-57848500D01*
G37*
G36*
X71206700Y-59245500D02*
G01*
X69196900Y-59245500D01*
X69196900Y-58048500D01*
X71206700Y-58048500D01*
X71206700Y-59245500D01*
G37*
%TD*%
D11*
%TO.C,Rfbt1*%
X70510000Y-50000000D03*
X69490000Y-50000000D03*
%TD*%
D12*
%TO.C,Rpg2*%
X69175000Y-52000000D03*
X70825000Y-52000000D03*
%TD*%
D13*
%TO.C,Cvdda2*%
X76403600Y-57540000D03*
X76403600Y-58500000D03*
%TD*%
%TO.C,Cboot2*%
X76403600Y-59540000D03*
X76403600Y-60500000D03*
%TD*%
D11*
%TO.C,Rt2*%
X70510000Y-48500000D03*
X69490000Y-48500000D03*
%TD*%
D14*
%TO.C,Ccomp4*%
X60000000Y-56400000D03*
X60000000Y-54500000D03*
%TD*%
D15*
%TO.C,Cin3*%
X53475000Y-59000000D03*
X50525000Y-59000000D03*
%TD*%
D16*
%TO.C,Rfbb1*%
X58000000Y-57675000D03*
X58000000Y-59325000D03*
%TD*%
D12*
%TO.C,Rconfig2*%
X57975000Y-51175000D03*
X59625000Y-51175000D03*
%TD*%
D16*
%TO.C,Rpg1*%
X61500000Y-41675000D03*
X61500000Y-43325000D03*
%TD*%
D17*
%TO.C,M4*%
X71875000Y-70805000D03*
X71875000Y-67755000D03*
X68525000Y-70805000D03*
X68525000Y-67755000D03*
D18*
X76500000Y-71560000D03*
X76500000Y-67000000D03*
%TD*%
D19*
%TO.C,Cout7*%
X79500000Y-57025000D03*
X79500000Y-59975000D03*
%TD*%
D12*
%TO.C,Rcomp2*%
X58175000Y-52950000D03*
X59825000Y-52950000D03*
%TD*%
D20*
%TO.C,M1*%
X83300000Y-31485000D03*
X83300000Y-29785000D03*
X81600000Y-31485000D03*
X81600000Y-29785000D03*
D21*
X80195000Y-32540000D03*
X80195000Y-31270000D03*
X80195000Y-30000000D03*
X80195000Y-28730000D03*
D22*
X86000000Y-32540000D03*
X86000000Y-31270000D03*
X86000000Y-30000000D03*
X86000000Y-28730000D03*
%TD*%
D23*
%TO.C,Rsense1*%
X76500000Y-28962500D03*
X76500000Y-26037500D03*
%TD*%
D24*
%TO.C,L2*%
X86500000Y-73250000D03*
X86500000Y-63750000D03*
%TD*%
D16*
%TO.C,Rcomp1*%
X60500000Y-34175000D03*
X60500000Y-35825000D03*
%TD*%
D25*
%TO.C,Ccomp1*%
X60550000Y-32100000D03*
X62450000Y-32100000D03*
%TD*%
D26*
%TO.C,Cin1*%
X51550000Y-32250000D03*
X54500000Y-32250000D03*
%TD*%
D19*
%TO.C,Cout2*%
X68000000Y-22525000D03*
X68000000Y-25475000D03*
%TD*%
D12*
%TO.C,Rconfig1*%
X63175000Y-29000000D03*
X64825000Y-29000000D03*
%TD*%
D27*
%TO.C,Ccomp2*%
X58000000Y-47725000D03*
X58000000Y-49625000D03*
%TD*%
D28*
%TO.C,Rvdda1*%
X64000000Y-31990000D03*
X64000000Y-33010000D03*
%TD*%
D29*
%TO.C,L1*%
X87550000Y-43500000D03*
X76450000Y-43500000D03*
%TD*%
D19*
%TO.C,Cout6-7*%
X82500000Y-57025000D03*
X82500000Y-59975000D03*
%TD*%
%TO.C,Cout3*%
X64300000Y-22525000D03*
X64300000Y-25475000D03*
%TD*%
%TO.C,Cout4*%
X60650000Y-22525000D03*
X60650000Y-25475000D03*
%TD*%
D30*
%TO.C,Rt1*%
X62990000Y-30500000D03*
X64010000Y-30500000D03*
%TD*%
D31*
%TO.C,U1*%
X70999999Y-29500000D03*
D32*
X70048200Y-29942399D03*
X70048200Y-30442401D03*
X70048200Y-30942400D03*
X70048200Y-31442399D03*
X70048200Y-31942400D03*
X70048200Y-32442400D03*
X70048200Y-32942401D03*
X70048200Y-33442400D03*
X70048200Y-33942399D03*
X70048200Y-34442401D03*
D31*
X70999999Y-34884800D03*
X72500001Y-34884800D03*
D32*
X73451800Y-34442401D03*
X73451800Y-33942399D03*
X73451800Y-33442400D03*
X73451800Y-32942401D03*
X73451800Y-32442400D03*
X73451800Y-31942400D03*
X73451800Y-31442399D03*
X73451800Y-30942400D03*
X73451800Y-30442401D03*
X73451800Y-29942399D03*
D31*
X72500001Y-29500000D03*
D33*
X71750000Y-32192400D03*
%TD*%
D34*
%TO.C,M2*%
X68200000Y-38785000D03*
X68200000Y-40485000D03*
X69900000Y-38785000D03*
X69900000Y-40485000D03*
D35*
X71305000Y-37730000D03*
X71305000Y-39000000D03*
X71305000Y-40270000D03*
X71305000Y-41540000D03*
D36*
X65500000Y-37730000D03*
X65500000Y-39000000D03*
X65500000Y-40270000D03*
X65500000Y-41540000D03*
%TD*%
D31*
%TO.C,U2*%
X69451799Y-54557600D03*
D32*
X68500000Y-54999999D03*
X68500000Y-55500001D03*
X68500000Y-56000000D03*
X68500000Y-56499999D03*
X68500000Y-57000000D03*
X68500000Y-57500000D03*
X68500000Y-58000001D03*
X68500000Y-58500000D03*
X68500000Y-58999999D03*
X68500000Y-59500001D03*
D31*
X69451799Y-59942400D03*
X70951801Y-59942400D03*
D32*
X71903600Y-59500001D03*
X71903600Y-58999999D03*
X71903600Y-58500000D03*
X71903600Y-58000001D03*
X71903600Y-57500000D03*
X71903600Y-57000000D03*
X71903600Y-56499999D03*
X71903600Y-56000000D03*
X71903600Y-55500001D03*
X71903600Y-54999999D03*
D31*
X70951801Y-54557600D03*
D33*
X70201800Y-57250000D03*
%TD*%
D37*
%TO.C,Rsense2*%
X79962500Y-54000000D03*
X77037500Y-54000000D03*
%TD*%
D38*
%TO.C,Ccomp3*%
X58000000Y-56225000D03*
X58000000Y-54675000D03*
%TD*%
D26*
%TO.C,Cin2*%
X51550000Y-36500000D03*
X54500000Y-36500000D03*
%TD*%
D39*
%TO.C,Cvdda1*%
X62500000Y-34480000D03*
X62500000Y-33520000D03*
%TD*%
D40*
%TO.C,Cvcc1*%
X57500000Y-40975000D03*
X57500000Y-38025000D03*
%TD*%
D19*
%TO.C,Cout5*%
X56800000Y-22525000D03*
X56800000Y-25475000D03*
%TD*%
%TO.C,Cout1 - 5*%
X71800000Y-22500000D03*
X71800000Y-25450000D03*
%TD*%
D41*
%TO.C,M3*%
X61918600Y-65300000D03*
X63618600Y-65300000D03*
X61918600Y-63600000D03*
X63618600Y-63600000D03*
D42*
X60863600Y-62195000D03*
X62133600Y-62195000D03*
X63403600Y-62195000D03*
X64673600Y-62195000D03*
D43*
X60863600Y-68000000D03*
X62133600Y-68000000D03*
X63403600Y-68000000D03*
X64673600Y-68000000D03*
%TD*%
D26*
%TO.C,Cvcc2*%
X52025000Y-64500000D03*
X54975000Y-64500000D03*
%TD*%
D13*
%TO.C,Cboot1*%
X77500000Y-33720000D03*
X77500000Y-34680000D03*
%TD*%
M02*
