%TF.GenerationSoftware,KiCad,Pcbnew,9.0.4-9.0.4-0~ubuntu24.04.1*%
%TF.CreationDate,2026-01-22T00:02:32-05:00*%
%TF.ProjectId,Mergung 1.18 TRACES,4d657267-756e-4672-9031-2e3138205452,rev?*%
%TF.SameCoordinates,Original*%
%TF.FileFunction,Copper,L3,Inr*%
%TF.FilePolarity,Positive*%
%FSLAX46Y46*%
G04 Gerber Fmt 4.6, Leading zero omitted, Abs format (unit mm)*
G04 Created by KiCad (PCBNEW 9.0.4-9.0.4-0~ubuntu24.04.1) date 2026-01-22 00:02:32*
%MOMM*%
%LPD*%
G01*
G04 APERTURE LIST*
%TA.AperFunction,ComponentPad*%
%ADD10C,2.500000*%
%TD*%
%TA.AperFunction,ViaPad*%
%ADD11C,0.600000*%
%TD*%
%TA.AperFunction,Conductor*%
%ADD12C,0.500000*%
%TD*%
%TA.AperFunction,Conductor*%
%ADD13C,2.000000*%
%TD*%
%TA.AperFunction,Conductor*%
%ADD14C,1.000000*%
%TD*%
%TA.AperFunction,Conductor*%
%ADD15C,1.500000*%
%TD*%
%TA.AperFunction,Conductor*%
%ADD16C,0.200000*%
%TD*%
G04 APERTURE END LIST*
D10*
%TO.N,Net-(Con2-Pin_1)*%
%TO.C,Con2*%
X103000000Y-34250000D03*
%TO.N,GNDPWR*%
X103000000Y-39750000D03*
%TD*%
%TO.N,VCC*%
%TO.C,Con1*%
X47000000Y-42000000D03*
%TO.N,GNDPWR*%
X47000000Y-47500000D03*
%TO.N,GNDREF*%
X47000000Y-53000000D03*
%TD*%
%TO.N,Net-(Con3-Pin_1)*%
%TO.C,Con3*%
X103000000Y-48000000D03*
%TO.N,GNDPWR*%
X103000000Y-53500000D03*
%TD*%
D11*
%TO.N,Net-(M4-D)*%
X75571700Y-60500000D03*
X74259500Y-70200000D03*
%TO.N,GNDREF*%
X64123300Y-27779300D03*
X70653300Y-36795000D03*
X74585100Y-58504100D03*
X56000000Y-48500000D03*
X62835300Y-27902100D03*
X62334300Y-30500000D03*
X61500000Y-32153500D03*
X40943300Y-22840000D03*
X57206500Y-57035300D03*
X70201800Y-54537200D03*
%TO.N,GNDPWR*%
X67500000Y-59000000D03*
X67403900Y-46333000D03*
X91397700Y-55182600D03*
X65500000Y-50500000D03*
X90137500Y-56612500D03*
X52762600Y-55786200D03*
%TO.N,VCC*%
X68815350Y-61315350D03*
X58747300Y-64050000D03*
X54202500Y-43500000D03*
X70000000Y-36000000D03*
X78500000Y-32000000D03*
X73000000Y-57000000D03*
%TO.N,Net-(Con2-Pin_1)*%
X77208100Y-27839500D03*
%TO.N,Net-(Con3-Pin_1)*%
X75811300Y-50275000D03*
X102997400Y-51730000D03*
%TO.N,Net-(U2-VCC)*%
X52685400Y-61684300D03*
X66500000Y-58328700D03*
X67676800Y-49480000D03*
%TO.N,Net-(U1-PFM{slash}SYNC)*%
X67881800Y-32942400D03*
X76500000Y-33000000D03*
%TO.N,Net-(U2-PFM{slash}SYNC)*%
X74000000Y-57500000D03*
X67000000Y-57500000D03*
%TO.N,Net-(U1-ISNS+)*%
X74000000Y-43500000D03*
X76500000Y-31000000D03*
%TO.N,Net-(U2-ISNS+)*%
X78746800Y-64280000D03*
X78746800Y-53595600D03*
%TO.N,Net-(M1-G)*%
X72500000Y-36500000D03*
X77735300Y-30500000D03*
%TO.N,Net-(M4-G)*%
X69500000Y-64000000D03*
X66794800Y-60103200D03*
%TO.N,Net-(U2-FB)*%
X68000000Y-50500000D03*
X67592400Y-57000000D03*
%TO.N,Net-(U1-PG{slash}SYNCOUT)*%
X61500000Y-44500000D03*
X75000000Y-33000000D03*
%TO.N,Net-(U2-PG{slash}SYNCOUT)*%
X74900000Y-57851100D03*
X74593900Y-52774200D03*
%TO.N,Net-(U2-RT)*%
X67000000Y-55500000D03*
X68505000Y-48655900D03*
%TD*%
D12*
%TO.N,GNDREF*%
X51099500Y-57099500D02*
X47000000Y-53000000D01*
X43783300Y-20000000D02*
X54933200Y-20000000D01*
X40943300Y-22840000D02*
X43783300Y-20000000D01*
X64226300Y-54537200D02*
X61664000Y-57099500D01*
X54933200Y-20000000D02*
X62835300Y-27902100D01*
X70201800Y-54537200D02*
X64226300Y-54537200D01*
X61664000Y-57099500D02*
X51099500Y-57099500D01*
D13*
%TO.N,GNDPWR*%
X53657000Y-54156900D02*
X53654900Y-54159000D01*
X48167000Y-46333000D02*
X47000000Y-47500000D01*
D14*
X65500000Y-50500000D02*
X68000000Y-53000000D01*
X64166900Y-50500000D02*
X61500000Y-53166900D01*
D13*
X66052100Y-46333000D02*
X67403900Y-46333000D01*
X53654900Y-54159000D02*
X53654900Y-54893900D01*
D14*
X68000000Y-53000000D02*
X73000000Y-53000000D01*
D15*
X75802700Y-55802700D02*
X75802700Y-55971200D01*
D13*
X53657000Y-54156900D02*
X54647000Y-53166900D01*
D14*
X65500000Y-50500000D02*
X64166900Y-50500000D01*
D13*
X53654900Y-54893900D02*
X52762600Y-55786200D01*
X66052100Y-46333000D02*
X48167000Y-46333000D01*
X53657000Y-54156900D02*
X47000000Y-47500000D01*
D15*
X73000000Y-53000000D02*
X75802700Y-55802700D01*
D13*
X75802700Y-55971200D02*
X76444000Y-56612500D01*
X76444000Y-56612500D02*
X90137500Y-56612500D01*
X54647000Y-53166900D02*
X61500000Y-53166900D01*
D14*
%TO.N,VCC*%
X75401000Y-59099000D02*
X73184650Y-61315350D01*
X73184650Y-61315350D02*
X72482371Y-61315350D01*
D16*
X73000000Y-57000000D02*
X74757421Y-57000000D01*
D13*
X54202500Y-43500000D02*
X52702500Y-42000000D01*
D16*
X74757421Y-57000000D02*
X75401000Y-57643579D01*
D14*
X72482371Y-61315350D02*
X68815350Y-61315350D01*
D13*
X52702500Y-42000000D02*
X47000000Y-42000000D01*
D16*
X75401000Y-57643579D02*
X75401000Y-59099000D01*
D12*
%TO.N,Net-(Con2-Pin_1)*%
X77208100Y-27839500D02*
X96589500Y-27839500D01*
X96589500Y-27839500D02*
X103000000Y-34250000D01*
%TO.N,Net-(Con3-Pin_1)*%
X75811300Y-50275000D02*
X78336300Y-47750000D01*
X78336300Y-47750000D02*
X99017400Y-47750000D01*
X99017400Y-47750000D02*
X102997400Y-51730000D01*
D16*
%TO.N,Net-(U2-VCC)*%
X63635500Y-61684300D02*
X52685400Y-61684300D01*
X66500000Y-58328700D02*
X66500000Y-58819800D01*
X66500000Y-58819800D02*
X63635500Y-61684300D01*
%TO.N,Net-(U2-PFM{slash}SYNC)*%
X72687800Y-58021300D02*
X73209100Y-57500000D01*
X73209100Y-57500000D02*
X74000000Y-57500000D01*
X67521300Y-58021300D02*
X72687800Y-58021300D01*
X67000000Y-57500000D02*
X67521300Y-58021300D01*
%TO.N,Net-(U1-ISNS+)*%
X77000000Y-31500000D02*
X76500000Y-31000000D01*
X77000000Y-31500000D02*
X77000000Y-40500000D01*
X77000000Y-40500000D02*
X74000000Y-43500000D01*
%TO.N,Net-(U1-PG{slash}SYNCOUT)*%
X75000000Y-33000000D02*
X72000000Y-33000000D01*
X61500000Y-43500000D02*
X61500000Y-44500000D01*
X72000000Y-33000000D02*
X61500000Y-43500000D01*
%TD*%
M02*
