M48
; DRILL file {KiCad 9.0.4-9.0.4-0~ubuntu24.04.1} date 2026-01-22T00:01:53-0500
; FORMAT={-:-/ absolute / metric / decimal}
; #@! TF.CreationDate,2026-01-22T00:01:53-05:00
; #@! TF.GenerationSoftware,Kicad,Pcbnew,9.0.4-9.0.4-0~ubuntu24.04.1
; #@! TF.FileFunction,Plated,1,4,PTH
FMAT,2
METRIC
; #@! TA.AperFunction,Plated,PTH,ViaDrill
T1C0.300
; #@! TA.AperFunction,Plated,PTH,ComponentDrill
T2C1.200
%
G90
G05
T1
X40.943Y-22.84
X52.685Y-61.684
X52.763Y-55.786
X54.203Y-43.5
X56.0Y-48.5
X57.206Y-57.035
X58.747Y-64.05
X61.5Y-32.154
X61.5Y-44.5
X62.334Y-30.5
X62.835Y-27.902
X64.123Y-27.779
X65.5Y-50.5
X66.5Y-58.329
X66.795Y-60.103
X67.0Y-55.5
X67.0Y-57.5
X67.404Y-46.333
X67.5Y-59.0
X67.592Y-57.0
X67.677Y-49.48
X67.882Y-32.942
X68.0Y-50.5
X68.505Y-48.656
X68.815Y-61.315
X69.5Y-64.0
X70.0Y-36.0
X70.202Y-54.537
X70.653Y-36.795
X72.5Y-36.5
X73.0Y-57.0
X74.0Y-43.5
X74.0Y-57.5
X74.26Y-70.2
X74.585Y-58.504
X74.594Y-52.774
X74.9Y-57.851
X75.0Y-33.0
X75.572Y-60.5
X75.811Y-50.275
X76.5Y-31.0
X76.5Y-33.0
X77.208Y-27.839
X77.735Y-30.5
X78.5Y-32.0
X78.747Y-53.596
X78.747Y-64.28
X90.138Y-56.612
X91.398Y-55.183
X102.997Y-51.73
T2
X47.0Y-42.0
X47.0Y-47.5
X47.0Y-53.0
X103.0Y-34.25
X103.0Y-39.75
X103.0Y-48.0
X103.0Y-53.5
M30
