%TF.GenerationSoftware,KiCad,Pcbnew,9.0.4-9.0.4-0~ubuntu24.04.1*%
%TF.CreationDate,2026-01-22T00:02:32-05:00*%
%TF.ProjectId,Mergung 1.18 TRACES,4d657267-756e-4672-9031-2e3138205452,rev?*%
%TF.SameCoordinates,Original*%
%TF.FileFunction,Copper,L1,Top*%
%TF.FilePolarity,Positive*%
%FSLAX46Y46*%
G04 Gerber Fmt 4.6, Leading zero omitted, Abs format (unit mm)*
G04 Created by KiCad (PCBNEW 9.0.4-9.0.4-0~ubuntu24.04.1) date 2026-01-22 00:02:32*
%MOMM*%
%LPD*%
G01*
G04 APERTURE LIST*
G04 Aperture macros list*
%AMRoundRect*
0 Rectangle with rounded corners*
0 $1 Rounding radius*
0 $2 $3 $4 $5 $6 $7 $8 $9 X,Y pos of 4 corners*
0 Add a 4 corners polygon primitive as box body*
4,1,4,$2,$3,$4,$5,$6,$7,$8,$9,$2,$3,0*
0 Add four circle primitives for the rounded corners*
1,1,$1+$1,$2,$3*
1,1,$1+$1,$4,$5*
1,1,$1+$1,$6,$7*
1,1,$1+$1,$8,$9*
0 Add four rect primitives between the rounded corners*
20,1,$1+$1,$2,$3,$4,$5,0*
20,1,$1+$1,$4,$5,$6,$7,0*
20,1,$1+$1,$6,$7,$8,$9,0*
20,1,$1+$1,$8,$9,$2,$3,0*%
G04 Aperture macros list end*
%TA.AperFunction,SMDPad,CuDef*%
%ADD10RoundRect,0.135000X0.135000X0.185000X-0.135000X0.185000X-0.135000X-0.185000X0.135000X-0.185000X0*%
%TD*%
%TA.AperFunction,SMDPad,CuDef*%
%ADD11RoundRect,0.200000X-0.200000X-0.275000X0.200000X-0.275000X0.200000X0.275000X-0.200000X0.275000X0*%
%TD*%
%TA.AperFunction,SMDPad,CuDef*%
%ADD12RoundRect,0.140000X-0.170000X0.140000X-0.170000X-0.140000X0.170000X-0.140000X0.170000X0.140000X0*%
%TD*%
%TA.AperFunction,SMDPad,CuDef*%
%ADD13RoundRect,0.250000X0.475000X-0.250000X0.475000X0.250000X-0.475000X0.250000X-0.475000X-0.250000X0*%
%TD*%
%TA.AperFunction,SMDPad,CuDef*%
%ADD14RoundRect,0.250000X0.325000X1.100000X-0.325000X1.100000X-0.325000X-1.100000X0.325000X-1.100000X0*%
%TD*%
%TA.AperFunction,SMDPad,CuDef*%
%ADD15RoundRect,0.200000X-0.275000X0.200000X-0.275000X-0.200000X0.275000X-0.200000X0.275000X0.200000X0*%
%TD*%
%TA.AperFunction,ComponentPad*%
%ADD16C,2.500000*%
%TD*%
%TA.AperFunction,SMDPad,CuDef*%
%ADD17RoundRect,0.250000X0.850000X0.350000X-0.850000X0.350000X-0.850000X-0.350000X0.850000X-0.350000X0*%
%TD*%
%TA.AperFunction,SMDPad,CuDef*%
%ADD18RoundRect,0.249997X2.950003X2.650003X-2.950003X2.650003X-2.950003X-2.650003X2.950003X-2.650003X0*%
%TD*%
%TA.AperFunction,SMDPad,CuDef*%
%ADD19RoundRect,0.250000X-0.650000X0.325000X-0.650000X-0.325000X0.650000X-0.325000X0.650000X0.325000X0*%
%TD*%
%TA.AperFunction,SMDPad,CuDef*%
%ADD20RoundRect,0.125000X0.300000X0.125000X-0.300000X0.125000X-0.300000X-0.125000X0.300000X-0.125000X0*%
%TD*%
%TA.AperFunction,SMDPad,CuDef*%
%ADD21R,4.550000X4.410000*%
%TD*%
%TA.AperFunction,SMDPad,CuDef*%
%ADD22RoundRect,0.250000X0.625000X-0.312500X0.625000X0.312500X-0.625000X0.312500X-0.625000X-0.312500X0*%
%TD*%
%TA.AperFunction,SMDPad,CuDef*%
%ADD23RoundRect,0.249999X2.500001X-1.250001X2.500001X1.250001X-2.500001X1.250001X-2.500001X-1.250001X0*%
%TD*%
%TA.AperFunction,SMDPad,CuDef*%
%ADD24RoundRect,0.250000X-0.250000X-0.475000X0.250000X-0.475000X0.250000X0.475000X-0.250000X0.475000X0*%
%TD*%
%TA.AperFunction,SMDPad,CuDef*%
%ADD25RoundRect,0.250000X-0.325000X-1.100000X0.325000X-1.100000X0.325000X1.100000X-0.325000X1.100000X0*%
%TD*%
%TA.AperFunction,SMDPad,CuDef*%
%ADD26RoundRect,0.250000X-0.475000X0.250000X-0.475000X-0.250000X0.475000X-0.250000X0.475000X0.250000X0*%
%TD*%
%TA.AperFunction,SMDPad,CuDef*%
%ADD27RoundRect,0.135000X-0.185000X0.135000X-0.185000X-0.135000X0.185000X-0.135000X0.185000X0.135000X0*%
%TD*%
%TA.AperFunction,SMDPad,CuDef*%
%ADD28R,3.100000X5.000000*%
%TD*%
%TA.AperFunction,SMDPad,CuDef*%
%ADD29RoundRect,0.135000X-0.135000X-0.185000X0.135000X-0.185000X0.135000X0.185000X-0.135000X0.185000X0*%
%TD*%
%TA.AperFunction,SMDPad,CuDef*%
%ADD30R,0.254000X0.812800*%
%TD*%
%TA.AperFunction,SMDPad,CuDef*%
%ADD31R,0.812800X0.254000*%
%TD*%
%TA.AperFunction,SMDPad,CuDef*%
%ADD32R,2.209800X4.191000*%
%TD*%
%TA.AperFunction,SMDPad,CuDef*%
%ADD33RoundRect,0.125000X-0.300000X-0.125000X0.300000X-0.125000X0.300000X0.125000X-0.300000X0.125000X0*%
%TD*%
%TA.AperFunction,SMDPad,CuDef*%
%ADD34RoundRect,0.250000X0.312500X0.625000X-0.312500X0.625000X-0.312500X-0.625000X0.312500X-0.625000X0*%
%TD*%
%TA.AperFunction,SMDPad,CuDef*%
%ADD35RoundRect,0.225000X0.250000X-0.225000X0.250000X0.225000X-0.250000X0.225000X-0.250000X-0.225000X0*%
%TD*%
%TA.AperFunction,SMDPad,CuDef*%
%ADD36RoundRect,0.140000X0.170000X-0.140000X0.170000X0.140000X-0.170000X0.140000X-0.170000X-0.140000X0*%
%TD*%
%TA.AperFunction,SMDPad,CuDef*%
%ADD37RoundRect,0.250000X1.100000X-0.325000X1.100000X0.325000X-1.100000X0.325000X-1.100000X-0.325000X0*%
%TD*%
%TA.AperFunction,SMDPad,CuDef*%
%ADD38RoundRect,0.125000X0.125000X-0.300000X0.125000X0.300000X-0.125000X0.300000X-0.125000X-0.300000X0*%
%TD*%
%TA.AperFunction,SMDPad,CuDef*%
%ADD39R,4.410000X4.550000*%
%TD*%
%TA.AperFunction,ViaPad*%
%ADD40C,0.600000*%
%TD*%
%TA.AperFunction,Conductor*%
%ADD41C,0.200000*%
%TD*%
%TA.AperFunction,Conductor*%
%ADD42C,0.500000*%
%TD*%
%TA.AperFunction,Conductor*%
%ADD43C,0.253800*%
%TD*%
%TA.AperFunction,Conductor*%
%ADD44C,0.300000*%
%TD*%
%TA.AperFunction,Conductor*%
%ADD45C,2.000000*%
%TD*%
%TA.AperFunction,Conductor*%
%ADD46C,0.500800*%
%TD*%
%TA.AperFunction,Conductor*%
%ADD47C,0.700000*%
%TD*%
%TA.AperFunction,Conductor*%
%ADD48C,0.800000*%
%TD*%
%TA.AperFunction,Conductor*%
%ADD49C,1.000000*%
%TD*%
%TA.AperFunction,Conductor*%
%ADD50C,0.381000*%
%TD*%
G04 APERTURE END LIST*
D10*
%TO.P,Rfbt1,1*%
%TO.N,Net-(Con3-Pin_1)*%
X70510000Y-50000000D03*
%TO.P,Rfbt1,2*%
%TO.N,Net-(U2-FB)*%
X69490000Y-50000000D03*
%TD*%
D11*
%TO.P,Rpg2,1*%
%TO.N,Net-(U2-VCC)*%
X69175000Y-52000000D03*
%TO.P,Rpg2,2*%
%TO.N,Net-(U2-PG{slash}SYNCOUT)*%
X70825000Y-52000000D03*
%TD*%
D12*
%TO.P,Cvdda2,1*%
%TO.N,Net-(U2-PFM{slash}SYNC)*%
X76403600Y-57540000D03*
%TO.P,Cvdda2,2*%
%TO.N,GNDREF*%
X76403600Y-58500000D03*
%TD*%
%TO.P,Cboot2,1*%
%TO.N,Net-(U2-CBOOT)*%
X76403600Y-59540000D03*
%TO.P,Cboot2,2*%
%TO.N,Net-(M4-D)*%
X76403600Y-60500000D03*
%TD*%
D10*
%TO.P,Rt2,1*%
%TO.N,GNDREF*%
X70510000Y-48500000D03*
%TO.P,Rt2,2*%
%TO.N,Net-(U2-RT)*%
X69490000Y-48500000D03*
%TD*%
D13*
%TO.P,Ccomp4,1*%
%TO.N,GNDREF*%
X60000000Y-56400000D03*
%TO.P,Ccomp4,2*%
%TO.N,Net-(U2-EXTCOMP)*%
X60000000Y-54500000D03*
%TD*%
D14*
%TO.P,Cin3,1*%
%TO.N,VCC*%
X53475000Y-59000000D03*
%TO.P,Cin3,2*%
%TO.N,GNDPWR*%
X50525000Y-59000000D03*
%TD*%
D15*
%TO.P,Rfbb1,1*%
%TO.N,Net-(U2-FB)*%
X58000000Y-57675000D03*
%TO.P,Rfbb1,2*%
%TO.N,GNDPWR*%
X58000000Y-59325000D03*
%TD*%
D16*
%TO.P,Con2,1,Pin_1*%
%TO.N,Net-(Con2-Pin_1)*%
X103000000Y-34250000D03*
%TO.P,Con2,2,Pin_2*%
%TO.N,GNDPWR*%
X103000000Y-39750000D03*
%TD*%
D11*
%TO.P,Rconfig2,1*%
%TO.N,GNDREF*%
X57975000Y-51175000D03*
%TO.P,Rconfig2,2*%
%TO.N,Net-(U2-CNFG)*%
X59625000Y-51175000D03*
%TD*%
D15*
%TO.P,Rpg1,1*%
%TO.N,Net-(U1-VCC)*%
X61500000Y-41675000D03*
%TO.P,Rpg1,2*%
%TO.N,Net-(U1-PG{slash}SYNCOUT)*%
X61500000Y-43325000D03*
%TD*%
D17*
%TO.P,M4,1,G*%
%TO.N,Net-(M4-G)*%
X76500000Y-71560000D03*
D18*
%TO.P,M4,2,D*%
%TO.N,Net-(M4-D)*%
X70200000Y-69280000D03*
D17*
%TO.P,M4,3,S*%
%TO.N,GNDPWR*%
X76500000Y-67000000D03*
%TD*%
D19*
%TO.P,Cout7,1*%
%TO.N,Net-(Con3-Pin_1)*%
X79500000Y-57025000D03*
%TO.P,Cout7,2*%
%TO.N,GNDPWR*%
X79500000Y-59975000D03*
%TD*%
D11*
%TO.P,Rcomp2,1*%
%TO.N,Net-(Ccomp3-Pad2)*%
X58175000Y-52950000D03*
%TO.P,Rcomp2,2*%
%TO.N,Net-(U2-EXTCOMP)*%
X59825000Y-52950000D03*
%TD*%
D20*
%TO.P,M1,1,S*%
%TO.N,Net-(M2-D)*%
X86000000Y-32540000D03*
%TO.P,M1,2,S*%
X86000000Y-31270000D03*
%TO.P,M1,3,S*%
X86000000Y-30000000D03*
%TO.P,M1,4,G*%
%TO.N,Net-(M1-G)*%
X86000000Y-28730000D03*
D21*
%TO.P,M1,5,D*%
%TO.N,VCC*%
X82050000Y-30635000D03*
%TD*%
D22*
%TO.P,Rsense1,1*%
%TO.N,Net-(U1-ISNS+)*%
X76500000Y-28962500D03*
%TO.P,Rsense1,2*%
%TO.N,Net-(Con2-Pin_1)*%
X76500000Y-26037500D03*
%TD*%
D23*
%TO.P,L2,1*%
%TO.N,Net-(M4-D)*%
X86500000Y-73250000D03*
%TO.P,L2,2*%
%TO.N,Net-(U2-ISNS+)*%
X86500000Y-63750000D03*
%TD*%
D15*
%TO.P,Rcomp1,1*%
%TO.N,Net-(Ccomp1-Pad1)*%
X60500000Y-34175000D03*
%TO.P,Rcomp1,2*%
%TO.N,Net-(U1-EXTCOMP)*%
X60500000Y-35825000D03*
%TD*%
D24*
%TO.P,Ccomp1,1*%
%TO.N,Net-(Ccomp1-Pad1)*%
X60550000Y-32100000D03*
%TO.P,Ccomp1,2*%
%TO.N,GNDREF*%
X62450000Y-32100000D03*
%TD*%
D25*
%TO.P,Cin1,1*%
%TO.N,VCC*%
X51550000Y-32250000D03*
%TO.P,Cin1,2*%
%TO.N,GNDPWR*%
X54500000Y-32250000D03*
%TD*%
D19*
%TO.P,Cout2,1*%
%TO.N,Net-(Con2-Pin_1)*%
X68000000Y-22525000D03*
%TO.P,Cout2,2*%
%TO.N,GNDPWR*%
X68000000Y-25475000D03*
%TD*%
D11*
%TO.P,Rconfig1,1*%
%TO.N,GNDREF*%
X63175000Y-29000000D03*
%TO.P,Rconfig1,2*%
%TO.N,Net-(U1-CNFG)*%
X64825000Y-29000000D03*
%TD*%
D26*
%TO.P,Ccomp2,1*%
%TO.N,Net-(U1-EXTCOMP)*%
X58000000Y-47725000D03*
%TO.P,Ccomp2,2*%
%TO.N,GNDREF*%
X58000000Y-49625000D03*
%TD*%
D27*
%TO.P,Rvdda1,1*%
%TO.N,Net-(U1-FB)*%
X64000000Y-31990000D03*
%TO.P,Rvdda1,2*%
%TO.N,Net-(U1-PFM{slash}SYNC)*%
X64000000Y-33010000D03*
%TD*%
D16*
%TO.P,Con1,1,Pin_1*%
%TO.N,VCC*%
X47000000Y-42000000D03*
%TO.P,Con1,2,Pin_2*%
%TO.N,GNDPWR*%
X47000000Y-47500000D03*
%TO.P,Con1,3,Pin_3*%
%TO.N,GNDREF*%
X47000000Y-53000000D03*
%TD*%
%TO.P,Con3,1,Pin_1*%
%TO.N,Net-(Con3-Pin_1)*%
X103000000Y-48000000D03*
%TO.P,Con3,2,Pin_2*%
%TO.N,GNDPWR*%
X103000000Y-53500000D03*
%TD*%
D28*
%TO.P,L1,1*%
%TO.N,Net-(M2-D)*%
X87550000Y-43500000D03*
%TO.P,L1,2*%
%TO.N,Net-(U1-ISNS+)*%
X76450000Y-43500000D03*
%TD*%
D19*
%TO.P,Cout6-7,1*%
%TO.N,Net-(Con3-Pin_1)*%
X82500000Y-57025000D03*
%TO.P,Cout6-7,2*%
%TO.N,GNDPWR*%
X82500000Y-59975000D03*
%TD*%
%TO.P,Cout3,1*%
%TO.N,Net-(Con2-Pin_1)*%
X64300000Y-22525000D03*
%TO.P,Cout3,2*%
%TO.N,GNDPWR*%
X64300000Y-25475000D03*
%TD*%
%TO.P,Cout4,1*%
%TO.N,Net-(Con2-Pin_1)*%
X60650000Y-22525000D03*
%TO.P,Cout4,2*%
%TO.N,GNDPWR*%
X60650000Y-25475000D03*
%TD*%
D29*
%TO.P,Rt1,1*%
%TO.N,GNDREF*%
X62990000Y-30500000D03*
%TO.P,Rt1,2*%
%TO.N,Net-(U1-RT)*%
X64010000Y-30500000D03*
%TD*%
D30*
%TO.P,U1,1,AVSS*%
%TO.N,GNDREF*%
X70999999Y-29500000D03*
D31*
%TO.P,U1,2,INJ*%
%TO.N,unconnected-(U1-INJ-Pad2)*%
X70048200Y-29942399D03*
%TO.P,U1,3,CNFG*%
%TO.N,Net-(U1-CNFG)*%
X70048200Y-30442401D03*
%TO.P,U1,4,RT*%
%TO.N,Net-(U1-RT)*%
X70048200Y-30942400D03*
%TO.P,U1,5,EXTCOMP*%
%TO.N,Net-(U1-EXTCOMP)*%
X70048200Y-31442399D03*
%TO.P,U1,6,FB*%
%TO.N,Net-(U1-FB)*%
X70048200Y-31942400D03*
%TO.P,U1,7,AGND*%
%TO.N,GNDREF*%
X70048200Y-32442400D03*
%TO.P,U1,8,VDDA*%
%TO.N,Net-(U1-PFM{slash}SYNC)*%
X70048200Y-32942401D03*
%TO.P,U1,9,VCC*%
%TO.N,Net-(U1-VCC)*%
X70048200Y-33442400D03*
%TO.P,U1,10,PGND*%
%TO.N,GNDPWR*%
X70048200Y-33942399D03*
%TO.P,U1,11,LO*%
%TO.N,Net-(M2-G)*%
X70048200Y-34442401D03*
D30*
%TO.P,U1,12,VIN*%
%TO.N,VCC*%
X70999999Y-34884800D03*
%TO.P,U1,13,HO*%
%TO.N,Net-(M1-G)*%
X72500001Y-34884800D03*
D31*
%TO.P,U1,14,SW*%
%TO.N,Net-(M2-D)*%
X73451800Y-34442401D03*
%TO.P,U1,15,CBOOT*%
%TO.N,Net-(U1-CBOOT)*%
X73451800Y-33942399D03*
%TO.P,U1,16,VCCX*%
%TO.N,GNDREF*%
X73451800Y-33442400D03*
%TO.P,U1,17,PG/SYNCOUT*%
%TO.N,Net-(U1-PG{slash}SYNCOUT)*%
X73451800Y-32942401D03*
%TO.P,U1,18,PFM/SYNC*%
%TO.N,Net-(U1-PFM{slash}SYNC)*%
X73451800Y-32442400D03*
%TO.P,U1,19,EN*%
%TO.N,VCC*%
X73451800Y-31942400D03*
%TO.P,U1,20,ISNS+*%
%TO.N,Net-(U1-ISNS+)*%
X73451800Y-31442399D03*
%TO.P,U1,21,VOUT*%
%TO.N,Net-(Con2-Pin_1)*%
X73451800Y-30942400D03*
%TO.P,U1,22,AEFVDDA*%
%TO.N,unconnected-(U1-AEFVDDA-Pad22)*%
X73451800Y-30442401D03*
%TO.P,U1,23,SEN*%
%TO.N,unconnected-(U1-SEN-Pad23)*%
X73451800Y-29942399D03*
D30*
%TO.P,U1,24,REFAGND*%
%TO.N,GNDREF*%
X72500001Y-29500000D03*
D32*
%TO.P,U1,25,AGND/PGND*%
X71750000Y-32192400D03*
%TD*%
D33*
%TO.P,M2,1,S*%
%TO.N,GNDPWR*%
X65500000Y-37730000D03*
%TO.P,M2,2,S*%
X65500000Y-39000000D03*
%TO.P,M2,3,S*%
X65500000Y-40270000D03*
%TO.P,M2,4,G*%
%TO.N,Net-(M2-G)*%
X65500000Y-41540000D03*
D21*
%TO.P,M2,5,D*%
%TO.N,Net-(M2-D)*%
X69450000Y-39635000D03*
%TD*%
D30*
%TO.P,U2,1,AVSS*%
%TO.N,GNDREF*%
X69451799Y-54557600D03*
D31*
%TO.P,U2,2,INJ*%
%TO.N,unconnected-(U2-INJ-Pad2)*%
X68500000Y-54999999D03*
%TO.P,U2,3,CNFG*%
%TO.N,Net-(U2-CNFG)*%
X68500000Y-55500001D03*
%TO.P,U2,4,RT*%
%TO.N,Net-(U2-RT)*%
X68500000Y-56000000D03*
%TO.P,U2,5,EXTCOMP*%
%TO.N,Net-(U2-EXTCOMP)*%
X68500000Y-56499999D03*
%TO.P,U2,6,FB*%
%TO.N,Net-(U2-FB)*%
X68500000Y-57000000D03*
%TO.P,U2,7,AGND*%
%TO.N,GNDREF*%
X68500000Y-57500000D03*
%TO.P,U2,8,VDDA*%
%TO.N,Net-(U2-PFM{slash}SYNC)*%
X68500000Y-58000001D03*
%TO.P,U2,9,VCC*%
%TO.N,Net-(U2-VCC)*%
X68500000Y-58500000D03*
%TO.P,U2,10,PGND*%
%TO.N,GNDPWR*%
X68500000Y-58999999D03*
%TO.P,U2,11,LO*%
%TO.N,Net-(M4-G)*%
X68500000Y-59500001D03*
D30*
%TO.P,U2,12,VIN*%
%TO.N,VCC*%
X69451799Y-59942400D03*
%TO.P,U2,13,HO*%
%TO.N,Net-(M3-G)*%
X70951801Y-59942400D03*
D31*
%TO.P,U2,14,SW*%
%TO.N,Net-(M4-D)*%
X71903600Y-59500001D03*
%TO.P,U2,15,CBOOT*%
%TO.N,Net-(U2-CBOOT)*%
X71903600Y-58999999D03*
%TO.P,U2,16,VCCX*%
%TO.N,GNDREF*%
X71903600Y-58500000D03*
%TO.P,U2,17,PG/SYNCOUT*%
%TO.N,Net-(U2-PG{slash}SYNCOUT)*%
X71903600Y-58000001D03*
%TO.P,U2,18,PFM/SYNC*%
%TO.N,Net-(U2-PFM{slash}SYNC)*%
X71903600Y-57500000D03*
%TO.P,U2,19,EN*%
%TO.N,VCC*%
X71903600Y-57000000D03*
%TO.P,U2,20,ISNS+*%
%TO.N,Net-(U2-ISNS+)*%
X71903600Y-56499999D03*
%TO.P,U2,21,VOUT*%
%TO.N,Net-(Con3-Pin_1)*%
X71903600Y-56000000D03*
%TO.P,U2,22,AEFVDDA*%
%TO.N,unconnected-(U2-AEFVDDA-Pad22)*%
X71903600Y-55500001D03*
%TO.P,U2,23,SEN*%
%TO.N,unconnected-(U2-SEN-Pad23)*%
X71903600Y-54999999D03*
D30*
%TO.P,U2,24,REFAGND*%
%TO.N,GNDREF*%
X70951801Y-54557600D03*
D32*
%TO.P,U2,25,AGND/PGND*%
X70201800Y-57250000D03*
%TD*%
D34*
%TO.P,Rsense2,1*%
%TO.N,Net-(U2-ISNS+)*%
X79962500Y-54000000D03*
%TO.P,Rsense2,2*%
%TO.N,Net-(Con3-Pin_1)*%
X77037500Y-54000000D03*
%TD*%
D35*
%TO.P,Ccomp3,1*%
%TO.N,GNDREF*%
X58000000Y-56225000D03*
%TO.P,Ccomp3,2*%
%TO.N,Net-(Ccomp3-Pad2)*%
X58000000Y-54675000D03*
%TD*%
D25*
%TO.P,Cin2,1*%
%TO.N,VCC*%
X51550000Y-36500000D03*
%TO.P,Cin2,2*%
%TO.N,GNDPWR*%
X54500000Y-36500000D03*
%TD*%
D36*
%TO.P,Cvdda1,1*%
%TO.N,Net-(U1-PFM{slash}SYNC)*%
X62500000Y-34480000D03*
%TO.P,Cvdda1,2*%
%TO.N,GNDREF*%
X62500000Y-33520000D03*
%TD*%
D37*
%TO.P,Cvcc1,1*%
%TO.N,Net-(U1-VCC)*%
X57500000Y-40975000D03*
%TO.P,Cvcc1,2*%
%TO.N,GNDPWR*%
X57500000Y-38025000D03*
%TD*%
D19*
%TO.P,Cout5,1*%
%TO.N,Net-(Con2-Pin_1)*%
X56800000Y-22525000D03*
%TO.P,Cout5,2*%
%TO.N,GNDPWR*%
X56800000Y-25475000D03*
%TD*%
%TO.P,Cout1 - 5,1*%
%TO.N,Net-(Con2-Pin_1)*%
X71800000Y-22500000D03*
%TO.P,Cout1 - 5,2*%
%TO.N,GNDPWR*%
X71800000Y-25450000D03*
%TD*%
D38*
%TO.P,M3,1,S*%
%TO.N,Net-(M4-D)*%
X60863600Y-68000000D03*
%TO.P,M3,2,S*%
X62133600Y-68000000D03*
%TO.P,M3,3,S*%
X63403600Y-68000000D03*
%TO.P,M3,4,G*%
%TO.N,Net-(M3-G)*%
X64673600Y-68000000D03*
D39*
%TO.P,M3,5,D*%
%TO.N,VCC*%
X62768600Y-64050000D03*
%TD*%
D25*
%TO.P,Cvcc2,1*%
%TO.N,Net-(U2-VCC)*%
X52025000Y-64500000D03*
%TO.P,Cvcc2,2*%
%TO.N,GNDPWR*%
X54975000Y-64500000D03*
%TD*%
D12*
%TO.P,Cboot1,1*%
%TO.N,Net-(U1-CBOOT)*%
X77500000Y-33720000D03*
%TO.P,Cboot1,2*%
%TO.N,Net-(M2-D)*%
X77500000Y-34680000D03*
%TD*%
D40*
%TO.N,Net-(M4-D)*%
X75571700Y-60500000D03*
X74259500Y-70200000D03*
%TO.N,GNDREF*%
X64123300Y-27779300D03*
X70653300Y-36795000D03*
X74585100Y-58504100D03*
X56000000Y-48500000D03*
X62835300Y-27902100D03*
X62334300Y-30500000D03*
X61500000Y-32153500D03*
X40943300Y-22840000D03*
X57206500Y-57035300D03*
X70201800Y-54537200D03*
%TO.N,GNDPWR*%
X67500000Y-59000000D03*
X67403900Y-46333000D03*
X91397700Y-55182600D03*
X65500000Y-50500000D03*
X90137500Y-56612500D03*
X52762600Y-55786200D03*
%TO.N,VCC*%
X68815350Y-61315350D03*
X58747300Y-64050000D03*
X54202500Y-43500000D03*
X70000000Y-36000000D03*
X78500000Y-32000000D03*
X73000000Y-57000000D03*
%TO.N,Net-(Con2-Pin_1)*%
X77208100Y-27839500D03*
%TO.N,Net-(Con3-Pin_1)*%
X75811300Y-50275000D03*
X102997400Y-51730000D03*
%TO.N,Net-(U2-VCC)*%
X52685400Y-61684300D03*
X66500000Y-58328700D03*
X67676800Y-49480000D03*
%TO.N,Net-(U1-PFM{slash}SYNC)*%
X67881800Y-32942400D03*
X76500000Y-33000000D03*
%TO.N,Net-(U2-PFM{slash}SYNC)*%
X74000000Y-57500000D03*
X67000000Y-57500000D03*
%TO.N,Net-(U1-ISNS+)*%
X74000000Y-43500000D03*
X76500000Y-31000000D03*
%TO.N,Net-(U2-ISNS+)*%
X78746800Y-64280000D03*
X78746800Y-53595600D03*
%TO.N,Net-(M1-G)*%
X72500000Y-36500000D03*
X77735300Y-30500000D03*
%TO.N,Net-(M4-G)*%
X69500000Y-64000000D03*
X66794800Y-60103200D03*
%TO.N,Net-(U2-FB)*%
X68000000Y-50500000D03*
X67592400Y-57000000D03*
%TO.N,Net-(U1-PG{slash}SYNCOUT)*%
X61500000Y-44500000D03*
X75000000Y-33000000D03*
%TO.N,Net-(U2-PG{slash}SYNCOUT)*%
X74900000Y-57851100D03*
X74593900Y-52774200D03*
%TO.N,Net-(U2-RT)*%
X67000000Y-55500000D03*
X68505000Y-48655900D03*
%TD*%
D41*
%TO.N,Net-(U1-CBOOT)*%
X74608200Y-34114800D02*
X77105200Y-34114800D01*
X74435800Y-33942400D02*
X74608200Y-34114800D01*
X77105200Y-34114800D02*
X77500000Y-33720000D01*
X73451800Y-33942400D02*
X74435800Y-33942400D01*
D42*
%TO.N,Net-(M2-D)*%
X69450000Y-39635000D02*
X77500000Y-39635000D01*
X81785000Y-39635000D02*
X85650000Y-43500000D01*
X83860000Y-34680000D02*
X86000000Y-32540000D01*
X73451800Y-34442400D02*
X74208200Y-34442400D01*
X74208200Y-34442400D02*
X74445800Y-34680000D01*
X86000000Y-32540000D02*
X86000000Y-31270000D01*
X87550000Y-43500000D02*
X85650000Y-43500000D01*
X77500000Y-39635000D02*
X81785000Y-39635000D01*
X77500000Y-39635000D02*
X77500000Y-34680000D01*
X86000000Y-30000000D02*
X86000000Y-31270000D01*
X74445800Y-34680000D02*
X77500000Y-34680000D01*
X77500000Y-34680000D02*
X83860000Y-34680000D01*
%TO.N,Net-(M4-D)*%
X73660000Y-60500000D02*
X72660000Y-59500000D01*
X75571700Y-60500000D02*
X76403600Y-60500000D01*
X86500000Y-73250000D02*
X76200700Y-73250000D01*
X71120000Y-70200000D02*
X70200000Y-69280000D01*
X62133600Y-68000000D02*
X63403600Y-68000000D01*
X75571700Y-60500000D02*
X73660000Y-60500000D01*
X64683600Y-69280000D02*
X70200000Y-69280000D01*
X71903600Y-59500000D02*
X72660000Y-59500000D01*
X63403600Y-68000000D02*
X64683600Y-69280000D01*
X60863600Y-68000000D02*
X62133600Y-68000000D01*
X74259500Y-71308800D02*
X74259500Y-70200000D01*
X74259500Y-70200000D02*
X71120000Y-70200000D01*
X76200700Y-73250000D02*
X74259500Y-71308800D01*
D41*
%TO.N,Net-(U2-CBOOT)*%
X71903600Y-59000000D02*
X73000000Y-59000000D01*
X73500000Y-59500000D02*
X76363600Y-59500000D01*
X76363600Y-59500000D02*
X76403600Y-59540000D01*
X73000000Y-59000000D02*
X73500000Y-59500000D01*
D42*
%TO.N,GNDREF*%
X70201400Y-54966600D02*
X69854000Y-55314000D01*
X64123300Y-27779300D02*
X63175000Y-28727600D01*
X70201800Y-54537200D02*
X70201400Y-54537600D01*
X71743600Y-30256400D02*
X71652900Y-30347100D01*
X47000000Y-53000000D02*
X54543900Y-53000000D01*
X74581000Y-58500000D02*
X74585100Y-58504100D01*
X62396500Y-32153500D02*
X62450000Y-32100000D01*
X58000000Y-49625000D02*
X57918900Y-49625000D01*
X71652900Y-30347100D02*
X71652900Y-32095300D01*
X58000000Y-56225000D02*
X59825000Y-56225000D01*
X70201800Y-57250000D02*
X70024600Y-57427200D01*
X72500000Y-30256400D02*
X71743600Y-30256400D01*
X58000000Y-49625000D02*
X59748900Y-47876100D01*
X57125000Y-49625000D02*
X56000000Y-48500000D01*
X58000000Y-56225000D02*
X57206500Y-57018500D01*
X70201800Y-57035400D02*
X70201800Y-57250000D01*
D43*
X69206100Y-57427200D02*
X69133300Y-57500000D01*
D42*
X71251900Y-36196400D02*
X71251900Y-35592900D01*
X62396500Y-32153500D02*
X62500000Y-32257000D01*
X71090700Y-30347100D02*
X71000000Y-30256400D01*
X69451800Y-54179400D02*
X69451800Y-54076200D01*
X62334300Y-30500000D02*
X62990000Y-30500000D01*
D43*
X69208300Y-57427200D02*
X69206100Y-57427200D01*
D42*
X70653300Y-36795000D02*
X71251900Y-36196400D01*
X59748900Y-47876100D02*
X69886100Y-47876100D01*
X62500000Y-32257000D02*
X62500000Y-33520000D01*
X69451800Y-54557600D02*
X69451800Y-55314000D01*
X70048200Y-32442400D02*
X71500000Y-32442400D01*
X73451800Y-33442400D02*
X72695400Y-33442400D01*
X69854000Y-55314000D02*
X69451800Y-55314000D01*
X61500000Y-32153500D02*
X62396500Y-32153500D01*
X69726800Y-53801200D02*
X69451800Y-54076200D01*
X58000000Y-51150000D02*
X58000000Y-49625000D01*
X71750000Y-33442400D02*
X72695400Y-33442400D01*
X69451800Y-54557600D02*
X69451800Y-54512500D01*
X69886100Y-47876100D02*
X70510000Y-48500000D01*
X70951800Y-54557600D02*
X70951800Y-53801200D01*
D44*
X76403600Y-58500000D02*
X74589200Y-58500000D01*
D42*
X70951800Y-53801200D02*
X69726800Y-53801200D01*
X57975000Y-51175000D02*
X58000000Y-51150000D01*
X71750000Y-33442400D02*
X71750000Y-32192400D01*
X70201400Y-54537600D02*
X70201400Y-54966600D01*
X57918900Y-49625000D02*
X57125000Y-49625000D01*
X70201800Y-54967000D02*
X70201400Y-54966600D01*
X54543900Y-53000000D02*
X57918900Y-49625000D01*
X71750000Y-35094900D02*
X71750000Y-33442400D01*
D43*
X68500000Y-57500000D02*
X69133300Y-57500000D01*
D42*
X71000000Y-29500000D02*
X71000000Y-30256400D01*
D44*
X71903600Y-58500000D02*
X74581000Y-58500000D01*
D42*
X71500000Y-32442400D02*
X71750000Y-32192400D01*
X70201800Y-57035400D02*
X70201800Y-54967000D01*
X71652900Y-30347100D02*
X71090700Y-30347100D01*
X71252000Y-35592900D02*
X71750000Y-35094900D01*
X59825000Y-56225000D02*
X60000000Y-56400000D01*
X63175000Y-28727600D02*
X63175000Y-29000000D01*
X71251900Y-35592900D02*
X71252000Y-35592900D01*
X74589200Y-58500000D02*
X74585100Y-58504100D01*
X70024600Y-57427200D02*
X69208300Y-57427200D01*
X71652900Y-32095300D02*
X71750000Y-32192400D01*
X69451800Y-54179400D02*
X69451800Y-54512500D01*
X72500000Y-29500000D02*
X72500000Y-30256400D01*
X57206500Y-57018500D02*
X57206500Y-57035300D01*
D41*
%TO.N,Net-(Ccomp1-Pad1)*%
X60550000Y-32100000D02*
X60500000Y-32150000D01*
X60500000Y-32150000D02*
X60500000Y-34175000D01*
%TO.N,Net-(U1-EXTCOMP)*%
X58000000Y-47725000D02*
X55964300Y-45689300D01*
X63796100Y-31442400D02*
X63485800Y-31752700D01*
X60500000Y-37024100D02*
X60500000Y-35825000D01*
X62791100Y-33952200D02*
X62290800Y-33952200D01*
X57343000Y-40181100D02*
X60500000Y-37024100D01*
X55964300Y-45689300D02*
X55964300Y-40493600D01*
X63485800Y-33257500D02*
X62791100Y-33952200D01*
X62290800Y-33952200D02*
X60500000Y-35743000D01*
X70048200Y-31442400D02*
X63796100Y-31442400D01*
X56276800Y-40181100D02*
X57343000Y-40181100D01*
X63485800Y-31752700D02*
X63485800Y-33257500D01*
X60500000Y-35743000D02*
X60500000Y-35825000D01*
X55964300Y-40493600D02*
X56276800Y-40181100D01*
%TO.N,Net-(Ccomp3-Pad2)*%
X58000000Y-53125000D02*
X58000000Y-54675000D01*
X58175000Y-52950000D02*
X58000000Y-53125000D01*
%TO.N,Net-(U2-EXTCOMP)*%
X60000000Y-54500000D02*
X62000000Y-56500000D01*
X60000000Y-53125000D02*
X60000000Y-54500000D01*
X62000000Y-56500000D02*
X68500000Y-56500000D01*
X59825000Y-52950000D02*
X60000000Y-53125000D01*
D45*
%TO.N,GNDPWR*%
X54975000Y-64884900D02*
X52952300Y-66907600D01*
X54975000Y-64500000D02*
X54975000Y-64884900D01*
D42*
X70048200Y-33942399D02*
X67557601Y-33942399D01*
D45*
X90302600Y-61362400D02*
X90137500Y-61197300D01*
X56121100Y-38121100D02*
X47000000Y-47242200D01*
X101067500Y-55432600D02*
X91647700Y-55432600D01*
X81379700Y-60505700D02*
X80789500Y-61095900D01*
X103000000Y-53500000D02*
X101067500Y-55432500D01*
X65500000Y-39000000D02*
X65500000Y-37730000D01*
X52762600Y-56597400D02*
X52609800Y-56597400D01*
X51165500Y-66907600D02*
X50369200Y-66111300D01*
X65321800Y-40091800D02*
X64858500Y-40091800D01*
X83317100Y-61340600D02*
X83317000Y-61340600D01*
X82500000Y-59975000D02*
X79500000Y-59975000D01*
D46*
X65321800Y-40091800D02*
X65500000Y-40270000D01*
D45*
X54582400Y-56597400D02*
X52762600Y-56597400D01*
X57310000Y-59325000D02*
X54582400Y-56597400D01*
D41*
X68500000Y-58999999D02*
X67500000Y-59000000D01*
D45*
X56121100Y-38121100D02*
X54500000Y-36500000D01*
X64022800Y-40927500D02*
X64022800Y-44303700D01*
X71800000Y-25450000D02*
X71775000Y-25475000D01*
X66052100Y-46333000D02*
X67403900Y-46333000D01*
X63289400Y-25475000D02*
X64300000Y-25475000D01*
X54500000Y-27775000D02*
X54500000Y-32250000D01*
X60650000Y-25475000D02*
X63289400Y-25475000D01*
X83460400Y-61197300D02*
X83317100Y-61340600D01*
X82623500Y-60647100D02*
X82599500Y-60647100D01*
X71775000Y-25475000D02*
X68000000Y-25475000D01*
X80789500Y-61095900D02*
X80620900Y-61095900D01*
X83317000Y-61340600D02*
X82623500Y-60647100D01*
X56800000Y-25475000D02*
X54500000Y-27775000D01*
X90137500Y-61197300D02*
X83460400Y-61197300D01*
X90137500Y-61197300D02*
X90137500Y-56612500D01*
X47000000Y-47242200D02*
X47000000Y-47500000D01*
X54500000Y-36500000D02*
X54500000Y-32250000D01*
X52952300Y-66907600D02*
X51165500Y-66907600D01*
X64858500Y-40091800D02*
X64022800Y-40927500D01*
X90302600Y-65539500D02*
X90302600Y-61362400D01*
X80620900Y-61095900D02*
X79500000Y-59975000D01*
X91647700Y-55432600D02*
X91397700Y-55182600D01*
X58000000Y-59325000D02*
X57310000Y-59325000D01*
X76500000Y-67000000D02*
X88842100Y-67000000D01*
X50369200Y-66111300D02*
X50369200Y-59155800D01*
X52609800Y-56597400D02*
X50525000Y-58682200D01*
X57403900Y-38121100D02*
X57500000Y-38025000D01*
X64022800Y-44303700D02*
X66052100Y-46333000D01*
X50369200Y-59155800D02*
X50525000Y-59000000D01*
X88842100Y-67000000D02*
X90302600Y-65539500D01*
X82458100Y-60505700D02*
X81379700Y-60505700D01*
X63289400Y-25475000D02*
X68000000Y-25475000D01*
X101067500Y-55432500D02*
X101067500Y-55432600D01*
X56121100Y-38121100D02*
X57403900Y-38121100D01*
D47*
X67557601Y-33942399D02*
X65500000Y-36000000D01*
D45*
X65321800Y-39178200D02*
X65321800Y-40091800D01*
X82599500Y-60647100D02*
X82458100Y-60505700D01*
D48*
X65500000Y-36000000D02*
X65500000Y-37730000D01*
D45*
X65500000Y-39000000D02*
X65321800Y-39178200D01*
X56800000Y-25475000D02*
X60650000Y-25475000D01*
X52762600Y-56597400D02*
X52762600Y-55786200D01*
X50525000Y-58682200D02*
X50525000Y-59000000D01*
%TO.N,VCC*%
X62768600Y-64050000D02*
X66080700Y-64050000D01*
D41*
X70999999Y-35000001D02*
X70000000Y-36000000D01*
D45*
X68815350Y-61315350D02*
X69451800Y-60678900D01*
D49*
X82050000Y-30635000D02*
X80685000Y-32000000D01*
D41*
X70999999Y-34884800D02*
X70999999Y-35000001D01*
D45*
X66080700Y-64050000D02*
X68815350Y-61315350D01*
D41*
X73509400Y-32000000D02*
X73451800Y-31942400D01*
D43*
X69451800Y-60678900D02*
X69451800Y-59942400D01*
D45*
X53475000Y-59000000D02*
X58525000Y-64050000D01*
D50*
X78500000Y-32000000D02*
X73509400Y-32000000D01*
D45*
X47000000Y-42000000D02*
X51550000Y-37450000D01*
X51550000Y-36500000D02*
X51550000Y-32250000D01*
X51550000Y-37450000D02*
X51550000Y-36500000D01*
D49*
X80685000Y-32000000D02*
X78500000Y-32000000D01*
D45*
X58525000Y-64050000D02*
X58747300Y-64050000D01*
X58747300Y-64050000D02*
X62768600Y-64050000D01*
D41*
X71903600Y-57000000D02*
X73000000Y-57000000D01*
D42*
%TO.N,Net-(Con2-Pin_1)*%
X72656900Y-21578300D02*
X76500000Y-25421400D01*
X68025000Y-22500000D02*
X68000000Y-22525000D01*
X64300000Y-22525000D02*
X63428300Y-21653300D01*
X73451800Y-30942400D02*
X74208200Y-30942400D01*
X71800000Y-22500000D02*
X68025000Y-22500000D01*
X76508600Y-26046100D02*
X76500000Y-26037500D01*
X74208200Y-29510500D02*
X74208200Y-30942400D01*
X76508600Y-27210100D02*
X74208200Y-29510500D01*
X76500000Y-25421400D02*
X76500000Y-26037500D01*
X68000000Y-22525000D02*
X68946700Y-21578300D01*
X77208100Y-27839500D02*
X77138000Y-27839500D01*
X77138000Y-27839500D02*
X76508600Y-27210100D01*
X76508600Y-27210100D02*
X76508600Y-26046100D01*
X68000000Y-22525000D02*
X64300000Y-22525000D01*
X68946700Y-21578300D02*
X72656900Y-21578300D01*
X63428300Y-21653300D02*
X57671700Y-21653300D01*
X64300000Y-22525000D02*
X60650000Y-22525000D01*
X57671700Y-21653300D02*
X56800000Y-22525000D01*
%TO.N,Net-(Con3-Pin_1)*%
X75811300Y-52773800D02*
X77037500Y-54000000D01*
X88045000Y-51480000D02*
X102747400Y-51480000D01*
X82500000Y-57025000D02*
X88045000Y-51480000D01*
X72512300Y-56000000D02*
X71903600Y-56000000D01*
X74512300Y-54000000D02*
X72512300Y-56000000D01*
X70510000Y-50000000D02*
X75536300Y-50000000D01*
X75536300Y-50000000D02*
X75811300Y-50275000D01*
X102747400Y-51480000D02*
X102997400Y-51730000D01*
X79500000Y-57025000D02*
X82500000Y-57025000D01*
X77037500Y-54000000D02*
X74512300Y-54000000D01*
X75811300Y-50275000D02*
X75811300Y-52773800D01*
D41*
%TO.N,Net-(U1-VCC)*%
X57500000Y-40975000D02*
X65032600Y-33442400D01*
X58200000Y-41675000D02*
X57500000Y-40975000D01*
X61500000Y-41675000D02*
X58200000Y-41675000D01*
X65032600Y-33442400D02*
X70048200Y-33442400D01*
%TO.N,Net-(U2-VCC)*%
X68500000Y-58500000D02*
X66671300Y-58500000D01*
X67676800Y-49480000D02*
X67000000Y-50156800D01*
X67000000Y-50156800D02*
X67000000Y-50951400D01*
X67000000Y-50951400D02*
X68048600Y-52000000D01*
X52685400Y-63839600D02*
X52685400Y-61684300D01*
X68048600Y-52000000D02*
X69175000Y-52000000D01*
X66671300Y-58500000D02*
X66500000Y-58328700D01*
X52025000Y-64500000D02*
X52685400Y-63839600D01*
%TO.N,Net-(U1-PFM{slash}SYNC)*%
X67881800Y-32942400D02*
X70048200Y-32942400D01*
X64000000Y-33099200D02*
X64000000Y-33010000D01*
X75942400Y-32442400D02*
X76500000Y-33000000D01*
X62500000Y-34480000D02*
X62619200Y-34480000D01*
X73451800Y-32442400D02*
X75942400Y-32442400D01*
X62619200Y-34480000D02*
X64000000Y-33099200D01*
X64000000Y-33010000D02*
X64067600Y-32942400D01*
X64067600Y-32942400D02*
X67881800Y-32942400D01*
%TO.N,Net-(U2-PFM{slash}SYNC)*%
X74000000Y-57500000D02*
X74500000Y-57000000D01*
X73209100Y-57500000D02*
X72934300Y-57774800D01*
X67000000Y-57500000D02*
X67213700Y-57500000D01*
X67213700Y-57500000D02*
X67713700Y-58000000D01*
X74000000Y-57500000D02*
X73209100Y-57500000D01*
X67713700Y-58000000D02*
X68500000Y-58000000D01*
X72934300Y-57774800D02*
X72547200Y-57774800D01*
X75863600Y-57000000D02*
X76403600Y-57540000D01*
X74500000Y-57000000D02*
X75863600Y-57000000D01*
X72272400Y-57500000D02*
X71903600Y-57500000D01*
X72547200Y-57774800D02*
X72272400Y-57500000D01*
%TO.N,Net-(U1-ISNS+)*%
X76500000Y-31000000D02*
X75000000Y-31000000D01*
X76500000Y-28962500D02*
X76500000Y-29500000D01*
X74557601Y-31442399D02*
X73451800Y-31442399D01*
X74000000Y-43500000D02*
X76450000Y-43500000D01*
X76500000Y-28962500D02*
X76500000Y-31000000D01*
X75000000Y-31000000D02*
X74557601Y-31442399D01*
D42*
%TO.N,Net-(U2-ISNS+)*%
X79558100Y-53595600D02*
X79962500Y-54000000D01*
D41*
X78746800Y-53802228D02*
X78746800Y-53595600D01*
D42*
X78746800Y-53595600D02*
X79558100Y-53595600D01*
D41*
X71903600Y-56499999D02*
X76049029Y-56499999D01*
D42*
X86500000Y-63750000D02*
X79276800Y-63750000D01*
X79276800Y-63750000D02*
X78746800Y-64280000D01*
D41*
X76049029Y-56499999D02*
X78746800Y-53802228D01*
%TO.N,Net-(M1-G)*%
X77735300Y-30500000D02*
X77735300Y-29764700D01*
X72500001Y-35480701D02*
X72510500Y-35491200D01*
X79721000Y-28279000D02*
X79721700Y-28278300D01*
X77735300Y-29764700D02*
X79221000Y-28279000D01*
X72500000Y-35491200D02*
X72500000Y-36500000D01*
X79221000Y-28279000D02*
X79721000Y-28279000D01*
X72500001Y-34884800D02*
X72500001Y-35480701D01*
X72510500Y-35491200D02*
X72500000Y-35491200D01*
X85548300Y-28278300D02*
X86000000Y-28730000D01*
X79721700Y-28278300D02*
X85548300Y-28278300D01*
%TO.N,Net-(M2-G)*%
X65500000Y-41540000D02*
X65502300Y-41540000D01*
X65502300Y-41540000D02*
X66651700Y-40390600D01*
X66651700Y-37232500D02*
X69441800Y-34442400D01*
X70048200Y-34442400D02*
X69441800Y-34442400D01*
X66651700Y-40390600D02*
X66651700Y-37232500D01*
%TO.N,Net-(M3-G)*%
X64673600Y-67317000D02*
X70951800Y-61038800D01*
X70951800Y-59942400D02*
X70951800Y-61038800D01*
X64673600Y-68000000D02*
X64673600Y-67317000D01*
%TO.N,Net-(M4-G)*%
X72500000Y-65000000D02*
X76500000Y-69000000D01*
X76500000Y-69000000D02*
X76500000Y-71560000D01*
X69500000Y-64000000D02*
X70500000Y-65000000D01*
X66794800Y-60103200D02*
X67398000Y-59500000D01*
X70500000Y-65000000D02*
X72500000Y-65000000D01*
X67398000Y-59500000D02*
X68500000Y-59500000D01*
%TO.N,Net-(U1-CNFG)*%
X64825000Y-29000000D02*
X66267400Y-30442400D01*
X66267400Y-30442400D02*
X70048200Y-30442400D01*
%TO.N,Net-(U2-CNFG)*%
X63568600Y-51175000D02*
X59625000Y-51175000D01*
X68500000Y-55500000D02*
X67893600Y-55500000D01*
X67893600Y-55500000D02*
X63568600Y-51175000D01*
%TO.N,Net-(U2-FB)*%
X68500000Y-50000000D02*
X69490000Y-50000000D01*
X68500000Y-57000000D02*
X67592400Y-57000000D01*
X63825000Y-57675000D02*
X64500000Y-57000000D01*
X58000000Y-57675000D02*
X63825000Y-57675000D01*
X64500000Y-57000000D02*
X67592400Y-57000000D01*
X68000000Y-50500000D02*
X68500000Y-50000000D01*
%TO.N,Net-(U1-PG{slash}SYNCOUT)*%
X73451800Y-32942401D02*
X74942401Y-32942401D01*
X61500000Y-43325000D02*
X61500000Y-44500000D01*
X74942401Y-32942401D02*
X75000000Y-33000000D01*
%TO.N,Net-(U2-PG{slash}SYNCOUT)*%
X70825000Y-52000000D02*
X71599200Y-52774200D01*
X74900000Y-57851100D02*
X74529579Y-57851100D01*
X74529579Y-57851100D02*
X74354879Y-58025800D01*
X75000000Y-57751100D02*
X74900000Y-57851100D01*
X74354879Y-58025800D02*
X71929399Y-58025800D01*
X71599200Y-52774200D02*
X74593900Y-52774200D01*
X71929399Y-58025800D02*
X71903600Y-58000001D01*
%TO.N,Net-(U1-RT)*%
X64452400Y-30942400D02*
X70048200Y-30942400D01*
X64010000Y-30500000D02*
X64452400Y-30942400D01*
%TO.N,Net-(U2-RT)*%
X67500000Y-56000000D02*
X68500000Y-56000000D01*
X67000000Y-55500000D02*
X67500000Y-56000000D01*
X68660900Y-48500000D02*
X68505000Y-48655900D01*
X69490000Y-48500000D02*
X68660900Y-48500000D01*
%TO.N,Net-(U1-FB)*%
X70048200Y-31942400D02*
X69441800Y-31942400D01*
X64000000Y-31990000D02*
X69394200Y-31990000D01*
X69394200Y-31990000D02*
X69441800Y-31942400D01*
%TD*%
M02*
